<svg viewBox="0 0 24 24" xmlns="http://www.w3.org/2000/svg" style="stroke-linecap:round;stroke-linejoin:round;stroke-miterlimit:1.5;stroke-width:2px" stroke="currentColor" fill="none" >
    <path d="M21.417,5.397c0.373,-0.373 0.583,-0.88 0.583,-1.407c-0,-1.092 -0.898,-1.99 -1.99,-1.99c-0.527,0 -1.034,0.21 -1.407,0.583l-9.42,9.423c-0.164,0.163 -0.286,0.364 -0.353,0.585l-0.933,3.072c-0.01,0.033 -0.015,0.067 -0.015,0.102c0,0.193 0.16,0.352 0.353,0.352c0.035,0 0.069,-0.005 0.102,-0.014l3.073,-0.932c0.221,-0.067 0.422,-0.188 0.586,-0.351l9.421,-9.423Z" />
    <path d="M20.824,12.588c-0,5.198 -4.214,9.412 -9.412,9.412c-5.195,-0 -9.412,-4.217 -9.412,-9.412c0,-5.198 4.214,-9.412 9.412,-9.412" />
</svg>
