<svg viewBox="0 0 24 24" xmlns="http://www.w3.org/2000/svg" style="stroke-linecap:round;stroke-linejoin:round;stroke-miterlimit:1.5;stroke-width:2px" stroke="currentColor" >
   <path d="M9.929,4.273c-1.356,0.363 -2.593,1.077 -3.586,2.07c-3.122,3.122 -3.122,8.192 0,11.314c3.122,3.122 8.192,3.122 11.314,-0c3.122,-3.122 3.122,-8.192 -0,-11.314c-1.127,-1.127 -2.566,-1.892 -4.131,-2.196c1.565,0.304 3.004,1.069 4.131,2.196c3.122,3.122 3.122,8.192 -0,11.314c-3.122,3.122 -8.192,3.122 -11.314,-0c-3.122,-3.122 -3.122,-8.192 0,-11.314c0.993,-0.993 2.23,-1.707 3.586,-2.07Z" />
</svg>
