<svg viewBox="0 0 24 24" xmlns="http://www.w3.org/2000/svg" style="stroke-linecap:round;stroke-linejoin:round;stroke-miterlimit:1.5;stroke-width:2px" stroke="currentColor" >
    <path d="M6.343,17.657c3.124,3.124 8.19,3.124 11.314,-0c3.122,-3.122 3.122,-8.192 -0,-11.314c-1.127,-1.127 -2.566,-1.892 -4.131,-2.196c1.565,0.304 3.004,1.069 4.131,2.196c3.122,3.122 3.122,8.192 -0,11.314c-3.124,3.124 -8.19,3.124 -11.314,-0Z" />
    <path d="M9.929,4.273c-1.539,0.412 -2.921,1.275 -3.967,2.479c1.046,-1.204 2.428,-2.067 3.967,-2.479Z" style="opacity:.25" />
    <path d="M4.273,9.929c-0.413,1.54 -0.356,3.168 0.163,4.676c-0.519,-1.508 -0.576,-3.136 -0.163,-4.676Z" style="opacity:.25" />
</svg>
